{
    "asset" : {
        "generator" : "Khronos glTF Blender I/O v1.3.48",
        "version" : "2.0"
    },
    "scene" : 0,
    "scenes" : [
        {
            "name" : "Scene",
            "nodes" : [
                0,
                1
            ]
        }
    ],
    "nodes" : [
        {
            "name" : "\u0412\u0438\u0434_Cinema_4D",
            "rotation" : [
                0.46071410179138184,
                0.4261101484298706,
                -0.7307539582252502,
                0.2686471939086914
            ],
            "scale" : [
                0.009999999776482582,
                0.009999999776482582,
                0.009999999776482582
            ],
            "translation" : [
                -13.711321830749512,
                10.30385684967041,
                9.151180267333984
            ]
        },
        {
            "mesh" : 0,
            "name" : "\u041d\u043e\u043b\u044c",
            "rotation" : [
                0.7071068286895752,
                0,
                0,
                0.7071067094802856
            ],
            "scale" : [
                0.009999999776482582,
                0.009999999776482582,
                0.009999999776482582
            ],
            "translation" : [
                0,
                0.7748100161552429,
                0
            ]
        }
    ],
    "meshes" : [
        {
            "name" : "\u041c\u0435\u0448",
            "primitives" : [
                {
                    "attributes" : {
                        "POSITION" : 0,
                        "NORMAL" : 1,
                        "TEXCOORD_0" : 2
                    },
                    "indices" : 3
                }
            ]
        }
    ],
    "accessors" : [
        {
            "bufferView" : 0,
            "componentType" : 5126,
            "count" : 8365,
            "max" : [
                346.0600280761719,
                190.61509704589844,
                81.48095703125
            ],
            "min" : [
                -346.0600280761719,
                -190.61509704589844,
                -81.48095703125
            ],
            "type" : "VEC3"
        },
        {
            "bufferView" : 1,
            "componentType" : 5126,
            "count" : 8365,
            "type" : "VEC3"
        },
        {
            "bufferView" : 2,
            "componentType" : 5126,
            "count" : 8365,
            "type" : "VEC2"
        },
        {
            "bufferView" : 3,
            "componentType" : 5123,
            "count" : 39432,
            "type" : "SCALAR"
        }
    ],
    "bufferViews" : [
        {
            "buffer" : 0,
            "byteLength" : 100380,
            "byteOffset" : 0
        },
        {
            "buffer" : 0,
            "byteLength" : 100380,
            "byteOffset" : 100380
        },
        {
            "buffer" : 0,
            "byteLength" : 66920,
            "byteOffset" : 200760
        },
        {
            "buffer" : 0,
            "byteLength" : 78864,
            "byteOffset" : 267680
        }
    ],
    "buffers" : [
        {
            "byteLength" : 346544,
            "uri" : "data:application/octet-stream;base64,"
        }
    ]
}
